<svg xmlns="http://www.w3.org/2000/svg" width="70.667" height="60" version="1.0" viewBox="0 0 53 45"><g fill="#00913f"><path d="M12.7 2.2c-1.5 1.2-1.1 2 3.9 8.3 3.1 3.8 6 7.4 6.4 7.8 1.3 1.4 4.9-1.1 4.4-3-.3-1.1 1.3-3.9 4-7.2 2.5-3 4.2-5.9 3.9-6.4-.6-.9-9.2 8-9.3 9.5-.1 2-2 .4-5.6-4.7-4.1-5.8-5-6.3-7.7-4.3z"/><path d="M23.4 2.5c-1.8 1.3-1.8 1.5-.1 3.2 1.6 1.7 1.8 1.7 3.7-.2 1.9-2 1.9-2.1.1-3.2-1.5-.9-2.3-.9-3.7.2zM42 8.5c-.7.9-4.1 3.6-7.6 6.2-5.8 4.2-6.2 4.7-5.2 6.9 1.2 2.6 2.3 3 3.3 1.4.4-.6 3.3 1.1 7 4 3.5 2.8 6.6 4.6 6.9 4.1.4-.5-1.9-2.9-4.9-5.3-3-2.3-5.5-4.6-5.5-5 0-.4 2.5-2.6 5.5-4.8 5.1-3.8 5.4-4.2 4.3-6.5-1.3-2.9-2.1-3.1-3.8-1zM5 12.7c0 .5 1.5 1.8 3.4 3.1 1.8 1.2 4.3 3.3 5.5 4.6l2.3 2.4-5.6 3.9c-5.8 4-6.3 4.9-4.4 7.6 1.2 1.6 2.1 1.2 9.5-4.5 7.9-6 8.1-6.2 6.6-8.5-1.1-1.7-1.9-2.1-2.8-1.3-.9.8-2.7-.2-6.8-3.5C7.4 12.3 5 11 5 12.7z"/><path d="M42.2 19.1c-1 1.6-1 2.4.2 4.1l1.5 2.1 1.2-2.7c1-2.2 1-2.9-.2-4.1-1.3-1.3-1.6-1.2-2.7.6zM6.1 20.9c-1.6 2.8 1.4 5.1 3.6 2.8 1.3-1.3 1.4-1.9.3-3.1-1.7-2.1-2.7-2-3.9.3zM25.2 25.3c-1.7 1-1.9 1.6-1.1 2.4.9.9.1 2.6-3.4 6.9-2.6 3.1-4.7 6-4.7 6.5 0 2 1.7.6 5.9-4.6 2.4-3 4.7-5.5 5-5.5.4 0 1.4 1.2 2.3 2.7 1 1.6 2.8 4.1 4.1 5.8 2.3 2.7 2.7 2.9 5 1.6l2.5-1.3-6-7.7c-3.3-4.2-6.3-7.7-6.7-7.8-.3-.1-1.6.3-2.9 1z"/><path d="M24.8 37.4c-2.3 1.7-2.2 2.3 0 3.5 1.2.6 2.3.5 3.5-.3 1.6-1.2 1.6-1.4-.1-2.9-1.4-1.3-2-1.3-3.4-.3z"/></g></svg>